<?xml version="1.0" standalone="no"?>
<!DOCTYPE svg PUBLIC "-//W3C//DTD SVG 1.1//EN"
  "http://www.w3.org/Graphics/SVG/1.1/DTD/svg11.dtd">
<svg width="320.000000cm" height="240.000000cm" viewBox="0.000000 0.000000 320.000000 240.000000" xmlns="http://www.w3.org/2000/svg" version="1.1">
<polygon fill="#ffffff" points="0.000000,0.000000 320.000000,0.000000 320.000000,240.000000 0.000000,240.000000" />
<polygon fill="#F4F4F4" stroke="#F4F4F4" stroke-width="0.1%" opacity="1.000000" points="173.479469,121.387821 169.884944,121.387821 164.432181,118.634512 164.392442,116.847680 " />
<polygon fill="#F4F4F4" stroke="#F4F4F4" stroke-width="0.1%" opacity="1.000000" points="164.392442,116.847680 164.432181,118.634512 149.883085,126.182422 146.204207,126.182422 " />
<line stroke="#7F7F7F" stroke-width="0.1%" opacity="1.000000" x1="173.479469" y1="121.387821" x2="164.392442" y2="116.847680" />
<line stroke="#7F7F7F" stroke-width="0.1%" opacity="1.000000" x1="164.392442" y1="116.847680" x2="146.204207" y2="126.182422" />
<line stroke="#7F7F7F" stroke-width="0.1%" opacity="1.000000" x1="164.392442" y1="116.847680" x2="164.432181" y2="113.172560" />
<polygon fill="#F4F4F4" stroke="#F4F4F4" stroke-width="0.1%" opacity="1.000000" points="164.432181,113.172560 164.392442,116.847680 173.479469,121.387821 173.604241,117.661465 " />
<polygon fill="#F4F4F4" stroke="#F4F4F4" stroke-width="0.1%" opacity="1.000000" points="146.073481,122.404811 146.204207,126.182422 164.392442,116.847680 164.432181,113.172560 " />
<line stroke="#7F7F7F" stroke-width="0.1%" opacity="1.000000" x1="169.884944" y1="121.387821" x2="164.432181" y2="118.634512" />
<line stroke="#7F7F7F" stroke-width="0.1%" opacity="1.000000" x1="164.432181" y1="118.634512" x2="149.883085" y2="126.182422" />
<line stroke="#7F7F7F" stroke-width="0.1%" opacity="1.000000" x1="164.432181" y1="118.634512" x2="164.452321" y2="116.796678" />
<polygon fill="#F4F4F4" stroke="#F4F4F4" stroke-width="0.1%" opacity="1.000000" points="164.452321,116.796678 164.432181,118.634512 169.884944,121.387821 169.930483,119.534857 " />
<polygon fill="#F4F4F4" stroke="#F4F4F4" stroke-width="0.1%" opacity="1.000000" points="149.835378,124.304262 149.883085,126.182422 164.432181,118.634512 164.452321,116.796678 " />
<line stroke="#7F7F7F" stroke-width="0.1%" opacity="1.000000" x1="173.604241" y1="117.661465" x2="164.432181" y2="113.172560" />
<line stroke="#7F7F7F" stroke-width="0.1%" opacity="1.000000" x1="164.432181" y1="113.172560" x2="146.073481" y2="122.404811" />
<polygon fill="#F4F4F4" stroke="#F4F4F4" stroke-width="0.1%" opacity="1.000000" points="173.604241,117.661465 155.245188,127.424860 146.073481,122.404811 164.432181,113.172560 " />
<line stroke="#7F7F7F" stroke-width="0.1%" opacity="1.000000" x1="169.930483" y1="119.534857" x2="164.452321" y2="116.796678" />
<line stroke="#7F7F7F" stroke-width="0.1%" opacity="1.000000" x1="164.452321" y1="116.796678" x2="149.835378" y2="124.304262" />
<polygon fill="#F4F4F4" stroke="#F4F4F4" stroke-width="0.1%" opacity="1.000000" points="169.930483,119.534857 155.313418,127.297156 149.835378,124.304262 164.452321,116.796678 " />
<line stroke="#7F7F7F" stroke-width="0.1%" opacity="1.000000" x1="165.953269" y1="115.872734" x2="164.490658" y2="115.727133" />
<line stroke="#7F7F7F" stroke-width="0.1%" opacity="1.000000" x1="164.490658" y1="115.727133" x2="163.034697" y2="115.872734" />
<polygon fill="#F4F4F4" stroke="#F4F4F4" stroke-width="0.1%" opacity="1.000000" points="165.980700,113.989123 164.511335,113.844390 164.490658,115.727133 165.953269,115.872734 " />
<polygon fill="#F4F4F4" stroke="#F4F4F4" stroke-width="0.1%" opacity="1.000000" points="164.511335,113.844390 163.048680,113.989123 163.034697,115.872734 164.490658,115.727133 " />
<polygon fill="#F4F4F4" stroke="#F4F4F4" stroke-width="0.1%" opacity="1.000000" points="155.290893,131.253491 155.335728,129.190374 169.884944,121.387821 173.479469,121.387821 " />
<line stroke="#7F7F7F" stroke-width="0.1%" opacity="1.000000" x1="155.290893" y1="131.253491" x2="173.479469" y2="121.387821" />
<line stroke="#7F7F7F" stroke-width="0.1%" opacity="1.000000" x1="173.479469" y1="121.387821" x2="173.604241" y2="117.661465" />
<polygon fill="#F4F4F4" stroke="#F4F4F4" stroke-width="0.1%" opacity="1.000000" points="173.604241,117.661465 173.479469,121.387821 155.290893,131.253491 155.245188,127.424860 " />
<line stroke="#7F7F7F" stroke-width="0.1%" opacity="1.000000" x1="155.335728" y1="129.190374" x2="169.884944" y2="121.387821" />
<line stroke="#7F7F7F" stroke-width="0.1%" opacity="1.000000" x1="169.884944" y1="121.387821" x2="169.930483" y2="119.534857" />
<polygon fill="#F4F4F4" stroke="#F4F4F4" stroke-width="0.1%" opacity="1.000000" points="169.930483,119.534857 169.884944,121.387821 155.335728,129.190374 155.313418,127.297156 " />
<line stroke="#7F7F7F" stroke-width="0.1%" opacity="1.000000" x1="167.205572" y1="116.289027" x2="165.953269" y2="115.872734" />
<polygon fill="#F4F4F4" stroke="#F4F4F4" stroke-width="0.1%" opacity="1.000000" points="167.238844,114.402942 165.980700,113.989123 165.953269,115.872734 167.205572,116.289027 " />
<line stroke="#7F7F7F" stroke-width="0.1%" opacity="1.000000" x1="163.034697" y1="115.872734" x2="161.801393" y2="116.289027" />
<polygon fill="#F4F4F4" stroke="#F4F4F4" stroke-width="0.1%" opacity="1.000000" points="163.048680,113.989123 161.809711,114.402942 161.801393,116.289027 163.034697,115.872734 " />
<line stroke="#7F7F7F" stroke-width="0.1%" opacity="1.000000" x1="168.059526" y1="116.915897" x2="167.205572" y2="116.289027" />
<line stroke="#7F7F7F" stroke-width="0.1%" opacity="1.000000" x1="161.801393" y1="116.289027" x2="160.976020" y2="116.915897" />
<polygon fill="#F4F4F4" stroke="#F4F4F4" stroke-width="0.1%" opacity="1.000000" points="168.096860,115.026109 167.238844,114.402942 167.205572,116.289027 168.059526,116.915897 " />
<polygon fill="#F4F4F4" stroke="#F4F4F4" stroke-width="0.1%" opacity="1.000000" points="161.809711,114.402942 160.980541,115.026109 160.976020,116.915897 161.801393,116.289027 " />
<line stroke="#7F7F7F" stroke-width="0.1%" opacity="1.000000" x1="165.980700" y1="113.989123" x2="164.511335" y2="113.844390" />
<line stroke="#7F7F7F" stroke-width="0.1%" opacity="1.000000" x1="164.511335" y1="113.844390" x2="163.048680" y2="113.989123" />
<polygon fill="#F4F4F4" stroke="#F4F4F4" stroke-width="0.1%" opacity="1.000000" points="164.555833,115.767307 165.980700,113.989123 164.511335,113.844390 " />
<polygon fill="#F4F4F4" stroke="#F4F4F4" stroke-width="0.1%" opacity="1.000000" points="164.555833,115.767307 164.511335,113.844390 163.048680,113.989123 " />
<line stroke="#7F7F7F" stroke-width="0.1%" opacity="1.000000" x1="155.313418" y1="127.297156" x2="169.930483" y2="119.534857" />
<line stroke="#7F7F7F" stroke-width="0.1%" opacity="1.000000" x1="167.238844" y1="114.402942" x2="165.980700" y2="113.989123" />
<line stroke="#7F7F7F" stroke-width="0.1%" opacity="1.000000" x1="163.048680" y1="113.989123" x2="161.809711" y2="114.402942" />
<polygon fill="#F4F4F4" stroke="#F4F4F4" stroke-width="0.1%" opacity="1.000000" points="164.555833,115.767307 167.238844,114.402942 165.980700,113.989123 " />
<polygon fill="#F4F4F4" stroke="#F4F4F4" stroke-width="0.1%" opacity="1.000000" points="164.555833,115.767307 163.048680,113.989123 161.809711,114.402942 " />
<line stroke="#7F7F7F" stroke-width="0.1%" opacity="1.000000" x1="160.978031" y1="122.508292" x2="160.000000" y2="122.406666" />
<line stroke="#7F7F7F" stroke-width="0.1%" opacity="1.000000" x1="160.000000" y1="122.406666" x2="159.021969" y2="122.508292" />
<polygon fill="#F4F4F4" stroke="#F4F4F4" stroke-width="0.1%" opacity="1.000000" points="160.000000,123.751996 160.978031,122.508292 160.000000,122.406666 " />
<polygon fill="#F4F4F4" stroke="#F4F4F4" stroke-width="0.1%" opacity="1.000000" points="160.000000,123.751996 160.000000,122.406666 159.021969,122.508292 " />
<polygon fill="#F4F4F4" stroke="#F4F4F4" stroke-width="0.1%" opacity="1.000000" points="160.982562,120.649308 160.000000,120.548225 160.000000,122.406666 160.978031,122.508292 " />
<polygon fill="#F4F4F4" stroke="#F4F4F4" stroke-width="0.1%" opacity="1.000000" points="160.000000,120.548225 159.017438,120.649308 159.021969,122.508292 160.000000,122.406666 " />
<line stroke="#7F7F7F" stroke-width="0.1%" opacity="1.000000" x1="168.382571" y1="117.661465" x2="168.059526" y2="116.915897" />
<polygon fill="#F4F4F4" stroke="#F4F4F4" stroke-width="0.1%" opacity="1.000000" points="168.421548,115.767307 168.096860,115.026109 168.059526,116.915897 168.382571,117.661465 " />
<line stroke="#7F7F7F" stroke-width="0.1%" opacity="1.000000" x1="160.976020" y1="116.915897" x2="160.686923" y2="117.661465" />
<polygon fill="#F4F4F4" stroke="#F4F4F4" stroke-width="0.1%" opacity="1.000000" points="160.980541,115.026109 160.690118,115.767307 160.686923,117.661465 160.976020,116.915897 " />
<line stroke="#7F7F7F" stroke-width="0.1%" opacity="1.000000" x1="161.809711" y1="122.798529" x2="160.978031" y2="122.508292" />
<polygon fill="#F4F4F4" stroke="#F4F4F4" stroke-width="0.1%" opacity="1.000000" points="160.000000,123.751996 161.809711,122.798529 160.978031,122.508292 " />
<polygon fill="#F4F4F4" stroke="#F4F4F4" stroke-width="0.1%" opacity="1.000000" points="161.818106,120.937999 160.982562,120.649308 160.978031,122.508292 161.809711,122.798529 " />
<line stroke="#7F7F7F" stroke-width="0.1%" opacity="1.000000" x1="159.021969" y1="122.508292" x2="158.190289" y2="122.798529" />
<polygon fill="#F4F4F4" stroke="#F4F4F4" stroke-width="0.1%" opacity="1.000000" points="160.000000,123.751996 159.021969,122.508292 158.190289,122.798529 " />
<polygon fill="#F4F4F4" stroke="#F4F4F4" stroke-width="0.1%" opacity="1.000000" points="159.017438,120.649308 158.181894,120.937999 158.190289,122.798529 159.021969,122.508292 " />
<line stroke="#7F7F7F" stroke-width="0.1%" opacity="1.000000" x1="162.369588" y1="123.234675" x2="161.809711" y2="122.798529" />
<line stroke="#7F7F7F" stroke-width="0.1%" opacity="1.000000" x1="158.190289" y1="122.798529" x2="157.630412" y2="123.234675" />
<polygon fill="#F4F4F4" stroke="#F4F4F4" stroke-width="0.1%" opacity="1.000000" points="160.000000,123.751996 162.369588,123.234675 161.809711,122.798529 " />
<polygon fill="#F4F4F4" stroke="#F4F4F4" stroke-width="0.1%" opacity="1.000000" points="160.000000,123.751996 158.190289,122.798529 157.630412,123.234675 " />
<polygon fill="#F4F4F4" stroke="#F4F4F4" stroke-width="0.1%" opacity="1.000000" points="162.380604,121.371832 161.818106,120.937999 161.809711,122.798529 162.369588,123.234675 " />
<polygon fill="#F4F4F4" stroke="#F4F4F4" stroke-width="0.1%" opacity="1.000000" points="158.181894,120.937999 157.619396,121.371832 157.630412,123.234675 158.190289,122.798529 " />
<line stroke="#7F7F7F" stroke-width="0.1%" opacity="1.000000" x1="168.096860" y1="115.026109" x2="167.238844" y2="114.402942" />
<line stroke="#7F7F7F" stroke-width="0.1%" opacity="1.000000" x1="161.809711" y1="114.402942" x2="160.980541" y2="115.026109" />
<polygon fill="#F4F4F4" stroke="#F4F4F4" stroke-width="0.1%" opacity="1.000000" points="164.555833,115.767307 168.096860,115.026109 167.238844,114.402942 " />
<polygon fill="#F4F4F4" stroke="#F4F4F4" stroke-width="0.1%" opacity="1.000000" points="164.555833,115.767307 161.809711,114.402942 160.980541,115.026109 " />
<line stroke="#7F7F7F" stroke-width="0.1%" opacity="1.000000" x1="162.571166" y1="123.751996" x2="162.369588" y2="123.234675" />
<line stroke="#7F7F7F" stroke-width="0.1%" opacity="1.000000" x1="157.630412" y1="123.234675" x2="157.428834" y2="123.751996" />
<polygon fill="#F4F4F4" stroke="#F4F4F4" stroke-width="0.1%" opacity="1.000000" points="160.000000,123.751996 162.571166,123.751996 162.369588,123.234675 " />
<polygon fill="#F4F4F4" stroke="#F4F4F4" stroke-width="0.1%" opacity="1.000000" points="160.000000,123.751996 157.630412,123.234675 157.428834,123.751996 " />
<polygon fill="#F4F4F4" stroke="#F4F4F4" stroke-width="0.1%" opacity="1.000000" points="162.583149,121.886425 162.380604,121.371832 162.369588,123.234675 162.571166,123.751996 " />
<polygon fill="#F4F4F4" stroke="#F4F4F4" stroke-width="0.1%" opacity="1.000000" points="157.619396,121.371832 157.416851,121.886425 157.428834,123.751996 157.630412,123.234675 " />
<line stroke="#7F7F7F" stroke-width="0.1%" opacity="1.000000" x1="155.245188" y1="127.424860" x2="173.604241" y2="117.661465" />
<line stroke="#7F7F7F" stroke-width="0.1%" opacity="1.000000" x1="168.120317" y1="118.413736" x2="168.382571" y2="117.661465" />
<line stroke="#7F7F7F" stroke-width="0.1%" opacity="1.000000" x1="160.686923" y1="117.661465" x2="160.983382" y2="118.413736" />
<polygon fill="#F4F4F4" stroke="#F4F4F4" stroke-width="0.1%" opacity="1.000000" points="168.158218,116.515205 168.421548,115.767307 168.382571,117.661465 168.120317,118.413736 " />
<polygon fill="#F4F4F4" stroke="#F4F4F4" stroke-width="0.1%" opacity="1.000000" points="160.690118,115.767307 160.987971,116.515205 160.983382,118.413736 160.686923,117.661465 " />
<line stroke="#7F7F7F" stroke-width="0.1%" opacity="1.000000" x1="160.982562" y1="120.649308" x2="160.000000" y2="120.548225" />
<line stroke="#7F7F7F" stroke-width="0.1%" opacity="1.000000" x1="160.000000" y1="120.548225" x2="159.017438" y2="120.649308" />
<line stroke="#7F7F7F" stroke-width="0.1%" opacity="1.000000" x1="168.421548" y1="115.767307" x2="168.096860" y2="115.026109" />
<line stroke="#7F7F7F" stroke-width="0.1%" opacity="1.000000" x1="160.980541" y1="115.026109" x2="160.690118" y2="115.767307" />
<polygon fill="#F4F4F4" stroke="#F4F4F4" stroke-width="0.1%" opacity="1.000000" points="164.555833,115.767307 168.421548,115.767307 168.096860,115.026109 " />
<polygon fill="#F4F4F4" stroke="#F4F4F4" stroke-width="0.1%" opacity="1.000000" points="164.555833,115.767307 160.980541,115.026109 160.690118,115.767307 " />
<line stroke="#7F7F7F" stroke-width="0.1%" opacity="1.000000" x1="161.818106" y1="120.937999" x2="160.982562" y2="120.649308" />
<line stroke="#7F7F7F" stroke-width="0.1%" opacity="1.000000" x1="159.017438" y1="120.649308" x2="158.181894" y2="120.937999" />
<line stroke="#7F7F7F" stroke-width="0.1%" opacity="1.000000" x1="162.381517" y1="124.272421" x2="162.571166" y2="123.751996" />
<line stroke="#7F7F7F" stroke-width="0.1%" opacity="1.000000" x1="157.428834" y1="123.751996" x2="157.618483" y2="124.272421" />
<line stroke="#7F7F7F" stroke-width="0.1%" opacity="1.000000" x1="162.380604" y1="121.371832" x2="161.818106" y2="120.937999" />
<line stroke="#7F7F7F" stroke-width="0.1%" opacity="1.000000" x1="158.181894" y1="120.937999" x2="157.619396" y2="121.371832" />
<polygon fill="#F4F4F4" stroke="#F4F4F4" stroke-width="0.1%" opacity="1.000000" points="160.000000,123.751996 158.173420,124.716061 159.010040,125.013794 " />
<polygon fill="#F4F4F4" stroke="#F4F4F4" stroke-width="0.1%" opacity="1.000000" points="160.000000,123.751996 159.010040,125.013794 160.000000,125.118523 " />
<polygon fill="#F4F4F4" stroke="#F4F4F4" stroke-width="0.1%" opacity="1.000000" points="160.000000,123.751996 160.000000,125.118523 160.989960,125.013794 " />
<polygon fill="#F4F4F4" stroke="#F4F4F4" stroke-width="0.1%" opacity="1.000000" points="160.000000,123.751996 160.989960,125.013794 161.826580,124.716061 " />
<polygon fill="#F4F4F4" stroke="#F4F4F4" stroke-width="0.1%" opacity="1.000000" points="160.000000,123.751996 161.826580,124.716061 162.381517,124.272421 " />
<polygon fill="#F4F4F4" stroke="#F4F4F4" stroke-width="0.1%" opacity="1.000000" points="160.000000,123.751996 162.381517,124.272421 162.571166,123.751996 " />
<polygon fill="#F4F4F4" stroke="#F4F4F4" stroke-width="0.1%" opacity="1.000000" points="160.000000,123.751996 157.428834,123.751996 157.618483,124.272421 " />
<polygon fill="#F4F4F4" stroke="#F4F4F4" stroke-width="0.1%" opacity="1.000000" points="160.000000,123.751996 157.618483,124.272421 158.173420,124.716061 " />
<polygon fill="#F4F4F4" stroke="#F4F4F4" stroke-width="0.1%" opacity="1.000000" points="162.392644,122.404123 162.583149,121.886425 162.571166,123.751996 162.381517,124.272421 " />
<polygon fill="#F4F4F4" stroke="#F4F4F4" stroke-width="0.1%" opacity="1.000000" points="157.416851,121.886425 157.607356,122.404123 157.618483,124.272421 157.428834,123.751996 " />
<line stroke="#7F7F7F" stroke-width="0.1%" opacity="1.000000" x1="160.983382" y1="118.413736" x2="161.826580" y2="119.056788" />
<polygon fill="#F4F4F4" stroke="#F4F4F4" stroke-width="0.1%" opacity="1.000000" points="160.987971,116.515205 161.835133,117.154548 161.826580,119.056788 160.983382,118.413736 " />
<line stroke="#7F7F7F" stroke-width="0.1%" opacity="1.000000" x1="167.306319" y1="119.056788" x2="168.120317" y2="118.413736" />
<polygon fill="#F4F4F4" stroke="#F4F4F4" stroke-width="0.1%" opacity="1.000000" points="167.340530,117.154548 168.158218,116.515205 168.120317,118.413736 167.306319,119.056788 " />
<line stroke="#7F7F7F" stroke-width="0.1%" opacity="1.000000" x1="162.583149" y1="121.886425" x2="162.380604" y2="121.371832" />
<line stroke="#7F7F7F" stroke-width="0.1%" opacity="1.000000" x1="157.619396" y1="121.371832" x2="157.416851" y2="121.886425" />
<line stroke="#7F7F7F" stroke-width="0.1%" opacity="1.000000" x1="160.690118" y1="115.767307" x2="160.987971" y2="116.515205" />
<polygon fill="#F4F4F4" stroke="#F4F4F4" stroke-width="0.1%" opacity="1.000000" points="164.555833,115.767307 161.835133,117.154548 163.104757,117.584547 " />
<polygon fill="#F4F4F4" stroke="#F4F4F4" stroke-width="0.1%" opacity="1.000000" points="164.555833,115.767307 163.104757,117.584547 164.601217,117.735980 " />
<polygon fill="#F4F4F4" stroke="#F4F4F4" stroke-width="0.1%" opacity="1.000000" points="164.555833,115.767307 164.601217,117.735980 166.090708,117.584547 " />
<polygon fill="#F4F4F4" stroke="#F4F4F4" stroke-width="0.1%" opacity="1.000000" points="164.555833,115.767307 166.090708,117.584547 167.340530,117.154548 " />
<polygon fill="#F4F4F4" stroke="#F4F4F4" stroke-width="0.1%" opacity="1.000000" points="164.555833,115.767307 167.340530,117.154548 168.158218,116.515205 " />
<polygon fill="#F4F4F4" stroke="#F4F4F4" stroke-width="0.1%" opacity="1.000000" points="164.555833,115.767307 168.158218,116.515205 168.421548,115.767307 " />
<polygon fill="#F4F4F4" stroke="#F4F4F4" stroke-width="0.1%" opacity="1.000000" points="164.555833,115.767307 160.690118,115.767307 160.987971,116.515205 " />
<polygon fill="#F4F4F4" stroke="#F4F4F4" stroke-width="0.1%" opacity="1.000000" points="164.555833,115.767307 160.987971,116.515205 161.835133,117.154548 " />
<line stroke="#7F7F7F" stroke-width="0.1%" opacity="1.000000" x1="168.158218" y1="116.515205" x2="168.421548" y2="115.767307" />
<line stroke="#7F7F7F" stroke-width="0.1%" opacity="1.000000" x1="161.826580" y1="124.716061" x2="162.381517" y2="124.272421" />
<line stroke="#7F7F7F" stroke-width="0.1%" opacity="1.000000" x1="157.618483" y1="124.272421" x2="158.173420" y2="124.716061" />
<polygon fill="#F4F4F4" stroke="#F4F4F4" stroke-width="0.1%" opacity="1.000000" points="161.835133,122.845452 162.392644,122.404123 162.381517,124.272421 161.826580,124.716061 " />
<polygon fill="#F4F4F4" stroke="#F4F4F4" stroke-width="0.1%" opacity="1.000000" points="157.607356,122.404123 158.164867,122.845452 158.173420,124.716061 157.618483,124.272421 " />
<line stroke="#7F7F7F" stroke-width="0.1%" opacity="1.000000" x1="160.989960" y1="125.013794" x2="161.826580" y2="124.716061" />
<line stroke="#7F7F7F" stroke-width="0.1%" opacity="1.000000" x1="162.392644" y1="122.404123" x2="162.583149" y2="121.886425" />
<polygon fill="#F4F4F4" stroke="#F4F4F4" stroke-width="0.1%" opacity="1.000000" points="160.994602,123.141640 161.835133,122.845452 161.826580,124.716061 160.989960,125.013794 " />
<line stroke="#7F7F7F" stroke-width="0.1%" opacity="1.000000" x1="161.826580" y1="119.056788" x2="163.090256" y2="119.489266" />
<polygon fill="#F4F4F4" stroke="#F4F4F4" stroke-width="0.1%" opacity="1.000000" points="161.835133,117.154548 163.104757,117.584547 163.090256,119.489266 161.826580,119.056788 " />
<line stroke="#7F7F7F" stroke-width="0.1%" opacity="1.000000" x1="158.173420" y1="124.716061" x2="159.010040" y2="125.013794" />
<line stroke="#7F7F7F" stroke-width="0.1%" opacity="1.000000" x1="157.416851" y1="121.886425" x2="157.607356" y2="122.404123" />
<polygon fill="#F4F4F4" stroke="#F4F4F4" stroke-width="0.1%" opacity="1.000000" points="158.164867,122.845452 159.005398,123.141640 159.010040,125.013794 158.173420,124.716061 " />
<line stroke="#7F7F7F" stroke-width="0.1%" opacity="1.000000" x1="166.062261" y1="119.489266" x2="167.306319" y2="119.056788" />
<polygon fill="#F4F4F4" stroke="#F4F4F4" stroke-width="0.1%" opacity="1.000000" points="166.090708,117.584547 167.340530,117.154548 167.306319,119.056788 166.062261,119.489266 " />
<line stroke="#7F7F7F" stroke-width="0.1%" opacity="1.000000" x1="159.010040" y1="125.013794" x2="160.000000" y2="125.118523" />
<line stroke="#7F7F7F" stroke-width="0.1%" opacity="1.000000" x1="160.000000" y1="125.118523" x2="160.989960" y2="125.013794" />
<polygon fill="#F4F4F4" stroke="#F4F4F4" stroke-width="0.1%" opacity="1.000000" points="159.005398,123.141640 160.000000,123.245828 160.000000,125.118523 159.010040,125.013794 " />
<polygon fill="#F4F4F4" stroke="#F4F4F4" stroke-width="0.1%" opacity="1.000000" points="160.000000,123.245828 160.994602,123.141640 160.989960,125.013794 160.000000,125.118523 " />
<line stroke="#7F7F7F" stroke-width="0.1%" opacity="1.000000" x1="167.340530" y1="117.154548" x2="168.158218" y2="116.515205" />
<line stroke="#7F7F7F" stroke-width="0.1%" opacity="1.000000" x1="160.987971" y1="116.515205" x2="161.835133" y2="117.154548" />
<line stroke="#7F7F7F" stroke-width="0.1%" opacity="1.000000" x1="163.090256" y1="119.489266" x2="164.579710" y2="119.641568" />
<polygon fill="#F4F4F4" stroke="#F4F4F4" stroke-width="0.1%" opacity="1.000000" points="163.104757,117.584547 164.601217,117.735980 164.579710,119.641568 163.090256,119.489266 " />
<line stroke="#7F7F7F" stroke-width="0.1%" opacity="1.000000" x1="164.579710" y1="119.641568" x2="166.062261" y2="119.489266" />
<polygon fill="#F4F4F4" stroke="#F4F4F4" stroke-width="0.1%" opacity="1.000000" points="164.601217,117.735980 166.090708,117.584547 166.062261,119.489266 164.579710,119.641568 " />
<line stroke="#7F7F7F" stroke-width="0.1%" opacity="1.000000" x1="161.835133" y1="122.845452" x2="162.392644" y2="122.404123" />
<line stroke="#7F7F7F" stroke-width="0.1%" opacity="1.000000" x1="157.607356" y1="122.404123" x2="158.164867" y2="122.845452" />
<line stroke="#7F7F7F" stroke-width="0.1%" opacity="1.000000" x1="158.164867" y1="122.845452" x2="159.005398" y2="123.141640" />
<line stroke="#7F7F7F" stroke-width="0.1%" opacity="1.000000" x1="160.994602" y1="123.141640" x2="161.835133" y2="122.845452" />
<line stroke="#7F7F7F" stroke-width="0.1%" opacity="1.000000" x1="161.835133" y1="117.154548" x2="163.104757" y2="117.584547" />
<line stroke="#7F7F7F" stroke-width="0.1%" opacity="1.000000" x1="166.090708" y1="117.584547" x2="167.340530" y2="117.154548" />
<line stroke="#7F7F7F" stroke-width="0.1%" opacity="1.000000" x1="160.000000" y1="123.245828" x2="160.994602" y2="123.141640" />
<line stroke="#7F7F7F" stroke-width="0.1%" opacity="1.000000" x1="159.005398" y1="123.141640" x2="160.000000" y2="123.245828" />
<line stroke="#7F7F7F" stroke-width="0.1%" opacity="1.000000" x1="156.894074" y1="120.513827" x2="155.404019" y2="120.359953" />
<line stroke="#7F7F7F" stroke-width="0.1%" opacity="1.000000" x1="155.404019" y1="120.359953" x2="153.906999" y2="120.513827" />
<polygon fill="#F4F4F4" stroke="#F4F4F4" stroke-width="0.1%" opacity="1.000000" points="156.879426,118.603286 155.382359,118.450282 155.404019,120.359953 156.894074,120.513827 " />
<polygon fill="#F4F4F4" stroke="#F4F4F4" stroke-width="0.1%" opacity="1.000000" points="155.382359,118.450282 153.878262,118.603286 153.906999,120.513827 155.404019,120.359953 " />
<line stroke="#7F7F7F" stroke-width="0.1%" opacity="1.000000" x1="163.104757" y1="117.584547" x2="164.601217" y2="117.735980" />
<line stroke="#7F7F7F" stroke-width="0.1%" opacity="1.000000" x1="164.601217" y1="117.735980" x2="166.090708" y2="117.584547" />
<line stroke="#7F7F7F" stroke-width="0.1%" opacity="1.000000" x1="149.883085" y1="126.182422" x2="155.335728" y2="129.190374" />
<line stroke="#7F7F7F" stroke-width="0.1%" opacity="1.000000" x1="149.883085" y1="126.182422" x2="149.835378" y2="124.304262" />
<polygon fill="#F4F4F4" stroke="#F4F4F4" stroke-width="0.1%" opacity="1.000000" points="155.313418,127.297156 155.335728,129.190374 149.883085,126.182422 149.835378,124.304262 " />
<polygon fill="#F4F4F4" stroke="#F4F4F4" stroke-width="0.1%" opacity="1.000000" points="146.204207,126.182422 149.883085,126.182422 155.335728,129.190374 155.290893,131.253491 " />
<line stroke="#7F7F7F" stroke-width="0.1%" opacity="1.000000" x1="146.204207" y1="126.182422" x2="155.290893" y2="131.253491" />
<line stroke="#7F7F7F" stroke-width="0.1%" opacity="1.000000" x1="146.204207" y1="126.182422" x2="146.073481" y2="122.404811" />
<polygon fill="#F4F4F4" stroke="#F4F4F4" stroke-width="0.1%" opacity="1.000000" points="155.245188,127.424860 155.290893,131.253491 146.204207,126.182422 146.073481,122.404811 " />
<line stroke="#7F7F7F" stroke-width="0.1%" opacity="1.000000" x1="158.156234" y1="120.953815" x2="156.894074" y2="120.513827" />
<line stroke="#7F7F7F" stroke-width="0.1%" opacity="1.000000" x1="153.906999" y1="120.513827" x2="152.624937" y2="120.953815" />
<polygon fill="#F4F4F4" stroke="#F4F4F4" stroke-width="0.1%" opacity="1.000000" points="158.147519,119.040794 156.879426,118.603286 156.894074,120.513827 158.156234,120.953815 " />
<polygon fill="#F4F4F4" stroke="#F4F4F4" stroke-width="0.1%" opacity="1.000000" points="153.878262,118.603286 152.590077,119.040794 152.624937,120.953815 153.906999,120.513827 " />
<line stroke="#7F7F7F" stroke-width="0.1%" opacity="1.000000" x1="159.000948" y1="121.616483" x2="158.156234" y2="120.953815" />
<line stroke="#7F7F7F" stroke-width="0.1%" opacity="1.000000" x1="152.624937" y1="120.953815" x2="151.750279" y2="121.616483" />
<polygon fill="#F4F4F4" stroke="#F4F4F4" stroke-width="0.1%" opacity="1.000000" points="158.996210,119.699752 158.147519,119.040794 158.156234,120.953815 159.000948,121.616483 " />
<polygon fill="#F4F4F4" stroke="#F4F4F4" stroke-width="0.1%" opacity="1.000000" points="152.590077,119.040794 151.711158,119.699752 151.750279,121.616483 152.624937,120.953815 " />
<line stroke="#7F7F7F" stroke-width="0.1%" opacity="1.000000" x1="156.879426" y1="118.603286" x2="155.382359" y2="118.450282" />
<line stroke="#7F7F7F" stroke-width="0.1%" opacity="1.000000" x1="155.382359" y1="118.450282" x2="153.878262" y2="118.603286" />
<polygon fill="#F4F4F4" stroke="#F4F4F4" stroke-width="0.1%" opacity="1.000000" points="155.335728,120.483704 156.879426,118.603286 155.382359,118.450282 " />
<polygon fill="#F4F4F4" stroke="#F4F4F4" stroke-width="0.1%" opacity="1.000000" points="155.335728,120.483704 155.382359,118.450282 153.878262,118.603286 " />
<line stroke="#7F7F7F" stroke-width="0.1%" opacity="1.000000" x1="149.835378" y1="124.304262" x2="155.313418" y2="127.297156" />
<line stroke="#7F7F7F" stroke-width="0.1%" opacity="1.000000" x1="158.147519" y1="119.040794" x2="156.879426" y2="118.603286" />
<line stroke="#7F7F7F" stroke-width="0.1%" opacity="1.000000" x1="153.878262" y1="118.603286" x2="152.590077" y2="119.040794" />
<polygon fill="#F4F4F4" stroke="#F4F4F4" stroke-width="0.1%" opacity="1.000000" points="155.335728,120.483704 158.147519,119.040794 156.879426,118.603286 " />
<polygon fill="#F4F4F4" stroke="#F4F4F4" stroke-width="0.1%" opacity="1.000000" points="155.335728,120.483704 153.878262,118.603286 152.590077,119.040794 " />
<line stroke="#7F7F7F" stroke-width="0.1%" opacity="1.000000" x1="159.296804" y1="122.404811" x2="159.000948" y2="121.616483" />
<line stroke="#7F7F7F" stroke-width="0.1%" opacity="1.000000" x1="151.750279" y1="121.616483" x2="151.418850" y2="122.404811" />
<polygon fill="#F4F4F4" stroke="#F4F4F4" stroke-width="0.1%" opacity="1.000000" points="159.293456,120.483704 158.996210,119.699752 159.000948,121.616483 159.296804,122.404811 " />
<polygon fill="#F4F4F4" stroke="#F4F4F4" stroke-width="0.1%" opacity="1.000000" points="151.711158,119.699752 151.378000,120.483704 151.418850,122.404811 151.750279,121.616483 " />
<line stroke="#7F7F7F" stroke-width="0.1%" opacity="1.000000" x1="158.996210" y1="119.699752" x2="158.147519" y2="119.040794" />
<line stroke="#7F7F7F" stroke-width="0.1%" opacity="1.000000" x1="152.590077" y1="119.040794" x2="151.711158" y2="119.699752" />
<polygon fill="#F4F4F4" stroke="#F4F4F4" stroke-width="0.1%" opacity="1.000000" points="155.335728,120.483704 158.996210,119.699752 158.147519,119.040794 " />
<polygon fill="#F4F4F4" stroke="#F4F4F4" stroke-width="0.1%" opacity="1.000000" points="155.335728,120.483704 152.590077,119.040794 151.711158,119.699752 " />
<line stroke="#7F7F7F" stroke-width="0.1%" opacity="1.000000" x1="146.073481" y1="122.404811" x2="155.245188" y2="127.424860" />
<line stroke="#7F7F7F" stroke-width="0.1%" opacity="1.000000" x1="158.993233" y1="123.200428" x2="159.296804" y2="122.404811" />
<line stroke="#7F7F7F" stroke-width="0.1%" opacity="1.000000" x1="151.418850" y1="122.404811" x2="151.686574" y2="123.200428" />
<polygon fill="#F4F4F4" stroke="#F4F4F4" stroke-width="0.1%" opacity="1.000000" points="158.988421,121.274946 159.293456,120.483704 159.296804,122.404811 158.993233,123.200428 " />
<polygon fill="#F4F4F4" stroke="#F4F4F4" stroke-width="0.1%" opacity="1.000000" points="151.378000,120.483704 151.646845,121.274946 151.686574,123.200428 151.418850,122.404811 " />
<line stroke="#7F7F7F" stroke-width="0.1%" opacity="1.000000" x1="159.293456" y1="120.483704" x2="158.996210" y2="119.699752" />
<polygon fill="#F4F4F4" stroke="#F4F4F4" stroke-width="0.1%" opacity="1.000000" points="155.335728,120.483704 159.293456,120.483704 158.996210,119.699752 " />
<line stroke="#7F7F7F" stroke-width="0.1%" opacity="1.000000" x1="151.711158" y1="119.699752" x2="151.378000" y2="120.483704" />
<polygon fill="#F4F4F4" stroke="#F4F4F4" stroke-width="0.1%" opacity="1.000000" points="155.335728,120.483704 151.711158,119.699752 151.378000,120.483704 " />
<line stroke="#7F7F7F" stroke-width="0.1%" opacity="1.000000" x1="158.129840" y1="123.880692" x2="158.993233" y2="123.200428" />
<line stroke="#7F7F7F" stroke-width="0.1%" opacity="1.000000" x1="151.686574" y1="123.200428" x2="152.519359" y2="123.880692" />
<polygon fill="#F4F4F4" stroke="#F4F4F4" stroke-width="0.1%" opacity="1.000000" points="158.120873,121.951502 158.988421,121.274946 158.993233,123.200428 158.129840,123.880692 " />
<polygon fill="#F4F4F4" stroke="#F4F4F4" stroke-width="0.1%" opacity="1.000000" points="151.646845,121.274946 152.483492,121.951502 152.519359,123.880692 151.686574,123.200428 " />
<line stroke="#7F7F7F" stroke-width="0.1%" opacity="1.000000" x1="155.335728" y1="129.190374" x2="155.313418" y2="127.297156" />
<line stroke="#7F7F7F" stroke-width="0.1%" opacity="1.000000" x1="158.988421" y1="121.274946" x2="159.293456" y2="120.483704" />
<line stroke="#7F7F7F" stroke-width="0.1%" opacity="1.000000" x1="151.378000" y1="120.483704" x2="151.646845" y2="121.274946" />
<polygon fill="#F4F4F4" stroke="#F4F4F4" stroke-width="0.1%" opacity="1.000000" points="155.335728,120.483704 152.483492,121.951502 153.762954,122.406614 " />
<polygon fill="#F4F4F4" stroke="#F4F4F4" stroke-width="0.1%" opacity="1.000000" points="155.335728,120.483704 153.762954,122.406614 155.288146,122.566906 " />
<polygon fill="#F4F4F4" stroke="#F4F4F4" stroke-width="0.1%" opacity="1.000000" points="155.335728,120.483704 155.288146,122.566906 156.820647,122.406614 " />
<polygon fill="#F4F4F4" stroke="#F4F4F4" stroke-width="0.1%" opacity="1.000000" points="155.335728,120.483704 156.820647,122.406614 158.120873,121.951502 " />
<polygon fill="#F4F4F4" stroke="#F4F4F4" stroke-width="0.1%" opacity="1.000000" points="155.335728,120.483704 158.120873,121.951502 158.988421,121.274946 " />
<polygon fill="#F4F4F4" stroke="#F4F4F4" stroke-width="0.1%" opacity="1.000000" points="155.335728,120.483704 158.988421,121.274946 159.293456,120.483704 " />
<polygon fill="#F4F4F4" stroke="#F4F4F4" stroke-width="0.1%" opacity="1.000000" points="155.335728,120.483704 151.378000,120.483704 151.646845,121.274946 " />
<polygon fill="#F4F4F4" stroke="#F4F4F4" stroke-width="0.1%" opacity="1.000000" points="155.335728,120.483704 151.646845,121.274946 152.483492,121.951502 " />
<line stroke="#7F7F7F" stroke-width="0.1%" opacity="1.000000" x1="152.519359" y1="123.880692" x2="153.792782" y2="124.338281" />
<line stroke="#7F7F7F" stroke-width="0.1%" opacity="1.000000" x1="156.835852" y1="124.338281" x2="158.129840" y2="123.880692" />
<polygon fill="#F4F4F4" stroke="#F4F4F4" stroke-width="0.1%" opacity="1.000000" points="152.483492,121.951502 153.762954,122.406614 153.792782,124.338281 152.519359,123.880692 " />
<polygon fill="#F4F4F4" stroke="#F4F4F4" stroke-width="0.1%" opacity="1.000000" points="156.820647,122.406614 158.120873,121.951502 158.129840,123.880692 156.835852,124.338281 " />
<line stroke="#7F7F7F" stroke-width="0.1%" opacity="1.000000" x1="158.120873" y1="121.951502" x2="158.988421" y2="121.274946" />
<line stroke="#7F7F7F" stroke-width="0.1%" opacity="1.000000" x1="151.646845" y1="121.274946" x2="152.483492" y2="121.951502" />
<line stroke="#7F7F7F" stroke-width="0.1%" opacity="1.000000" x1="153.792782" y1="124.338281" x2="155.310697" y2="124.499442" />
<line stroke="#7F7F7F" stroke-width="0.1%" opacity="1.000000" x1="155.310697" y1="124.499442" x2="156.835852" y2="124.338281" />
<polygon fill="#F4F4F4" stroke="#F4F4F4" stroke-width="0.1%" opacity="1.000000" points="153.762954,122.406614 155.288146,122.566906 155.310697,124.499442 153.792782,124.338281 " />
<polygon fill="#F4F4F4" stroke="#F4F4F4" stroke-width="0.1%" opacity="1.000000" points="155.288146,122.566906 156.820647,122.406614 156.835852,124.338281 155.310697,124.499442 " />
<line stroke="#7F7F7F" stroke-width="0.1%" opacity="1.000000" x1="152.483492" y1="121.951502" x2="153.762954" y2="122.406614" />
<line stroke="#7F7F7F" stroke-width="0.1%" opacity="1.000000" x1="156.820647" y1="122.406614" x2="158.120873" y2="121.951502" />
<line stroke="#7F7F7F" stroke-width="0.1%" opacity="1.000000" x1="153.762954" y1="122.406614" x2="155.288146" y2="122.566906" />
<line stroke="#7F7F7F" stroke-width="0.1%" opacity="1.000000" x1="155.288146" y1="122.566906" x2="156.820647" y2="122.406614" />
<line stroke="#7F7F7F" stroke-width="0.1%" opacity="1.000000" x1="155.290893" y1="131.253491" x2="155.245188" y2="127.424860" />
</svg>
