<?xml version="1.0" encoding="utf-8" ?>
<svg baseProfile="full" height="512" version="1.1" viewBox="-0.5 -0.5 1.0 1.0" width="512" xmlns="http://www.w3.org/2000/svg" xmlns:ev="http://www.w3.org/2001/xml-events" xmlns:xlink="http://www.w3.org/1999/xlink"><defs><clipPath id="id1"><rect height="1.0" width="1.0" x="-0.5" y="-0.5" /></clipPath></defs><g clip-path="url(#id1)" fill="white" fill-opacity="0.75" stroke="black" stroke-linejoin="round" stroke-width="0.0005"><polygon points="0.24186,0.12886 0.23486,0.13085 0.23785,0.14274 0.24487,0.14075" /><polygon points="0.23486,0.13085 0.22784,0.13219 0.23083,0.14408 0.23785,0.14274" /><polygon points="0.22784,0.13219 0.22187,0.13267 0.22486,0.14457 0.23083,0.14408" /><polygon points="0.22187,0.13267 0.21784,0.13221 0.22083,0.14414 0.22486,0.14457" /><polygon points="0.21784,0.13221 0.21638,0.13089 0.21938,0.14284 0.22083,0.14414" /><polygon points="0.21638,0.13089 0.21773,0.1289 0.22073,0.14087 0.21938,0.14284" /><polygon points="0.21773,0.1289 0.22168,0.12654 0.22469,0.13853 0.22073,0.14087" /><polygon points="0.22168,0.12654 0.22765,0.12418 0.23067,0.13617 0.22469,0.13853" /><polygon points="0.22765,0.12418 0.23472,0.12216 0.23775,0.13416 0.23067,0.13617" /><polygon points="0.23472,0.12216 0.2418,0.12082 0.24483,0.13281 0.23775,0.13416" /><polygon points="0.2418,0.12082 0.2478,0.12035 0.25083,0.13232 0.24483,0.13281" /><polygon points="0.2478,0.12035 0.2518,0.12082 0.25483,0.13278 0.25083,0.13232" /><polygon points="0.2518,0.12082 0.25319,0.12216 0.25622,0.1341 0.25483,0.13278" /><polygon points="0.25319,0.12216 0.25179,0.12416 0.25481,0.13608 0.25622,0.1341" /><polygon points="0.25179,0.12416 0.24781,0.12651 0.25082,0.13841 0.25481,0.13608" /><polygon points="0.24781,0.12651 0.24186,0.12886 0.24487,0.14075 0.25082,0.13841" /><polygon points="0.23479,0.12653 0.24186,0.12886 0.23486,0.13085" /><polygon points="0.23479,0.12653 0.23486,0.13085 0.22784,0.13219" /><polygon points="0.23479,0.12653 0.22784,0.13219 0.22187,0.13267" /><polygon points="0.23479,0.12653 0.22187,0.13267 0.21784,0.13221" /><polygon points="0.23479,0.12653 0.21784,0.13221 0.21638,0.13089" /><polygon points="0.23479,0.12653 0.21638,0.13089 0.21773,0.1289" /><polygon points="0.23479,0.12653 0.21773,0.1289 0.22168,0.12654" /><polygon points="0.23479,0.12653 0.22168,0.12654 0.22765,0.12418" /><polygon points="0.23479,0.12653 0.22765,0.12418 0.23472,0.12216" /><polygon points="0.23479,0.12653 0.23472,0.12216 0.2418,0.12082" /><polygon points="0.23479,0.12653 0.2418,0.12082 0.2478,0.12035" /><polygon points="0.23479,0.12653 0.2478,0.12035 0.2518,0.12082" /><polygon points="0.23479,0.12653 0.2518,0.12082 0.25319,0.12216" /><polygon points="0.23479,0.12653 0.25319,0.12216 0.25179,0.12416" /><polygon points="0.23479,0.12653 0.25179,0.12416 0.24781,0.12651" /><polygon points="0.23479,0.12653 0.24781,0.12651 0.24186,0.12886" /><polygon points="0.18582,0.14764 0.17887,0.14961 0.1818,0.16144 0.18875,0.15947" /><polygon points="0.17887,0.14961 0.17188,0.15094 0.1748,0.16278 0.1818,0.16144" /><polygon points="0.17188,0.15094 0.16588,0.15144 0.16881,0.16329 0.1748,0.16278" /><polygon points="0.16588,0.15144 0.1618,0.15102 0.16472,0.16288 0.16881,0.16329" /><polygon points="0.1618,0.15102 0.16025,0.14974 0.16317,0.16163 0.16472,0.16288" /><polygon points="0.16025,0.14974 0.16148,0.1478 0.16441,0.1597 0.16317,0.16163" /><polygon points="0.16148,0.1478 0.16532,0.14548 0.16826,0.1574 0.16441,0.1597" /><polygon points="0.16532,0.14548 0.1712,0.14314 0.17415,0.15508 0.16826,0.1574" /><polygon points="0.1712,0.14314 0.1782,0.14115 0.18116,0.15309 0.17415,0.15508" /><polygon points="0.1782,0.14115 0.18526,0.13981 0.18822,0.15174 0.18116,0.15309" /><polygon points="0.18526,0.13981 0.19128,0.13932 0.19425,0.15124 0.18822,0.15174" /><polygon points="0.19128,0.13932 0.19534,0.13976 0.19831,0.15166 0.19425,0.15124" /><polygon points="0.19534,0.13976 0.19683,0.14106 0.19979,0.15294 0.19831,0.15166" /><polygon points="0.19683,0.14106 0.19554,0.14301 0.19849,0.15487 0.19979,0.15294" /><polygon points="0.19554,0.14301 0.19167,0.14532 0.19461,0.15717 0.19849,0.15487" /><polygon points="0.19167,0.14532 0.18582,0.14764 0.18875,0.15947 0.19461,0.15717" /><polygon points="0.17854,0.1454 0.18582,0.14764 0.17887,0.14961" /><polygon points="0.17854,0.1454 0.17887,0.14961 0.17188,0.15094" /><polygon points="0.17854,0.1454 0.17188,0.15094 0.16588,0.15144" /><polygon points="0.17854,0.1454 0.16588,0.15144 0.1618,0.15102" /><polygon points="0.17854,0.1454 0.1618,0.15102 0.16025,0.14974" /><polygon points="0.17854,0.1454 0.16025,0.14974 0.16148,0.1478" /><polygon points="0.17854,0.1454 0.16148,0.1478 0.16532,0.14548" /><polygon points="0.17854,0.1454 0.16532,0.14548 0.1712,0.14314" /><polygon points="0.17854,0.1454 0.1712,0.14314 0.1782,0.14115" /><polygon points="0.17854,0.1454 0.1782,0.14115 0.18526,0.13981" /><polygon points="0.17854,0.1454 0.18526,0.13981 0.19128,0.13932" /><polygon points="0.17854,0.1454 0.19128,0.13932 0.19534,0.13976" /><polygon points="0.17854,0.1454 0.19534,0.13976 0.19683,0.14106" /><polygon points="0.17854,0.1454 0.19683,0.14106 0.19554,0.14301" /><polygon points="0.17854,0.1454 0.19554,0.14301 0.19167,0.14532" /><polygon points="0.17854,0.1454 0.19167,0.14532 0.18582,0.14764" /><polygon points="0.25448,0.12504 0.28237,0.13438 0.17068,0.17157 0.14115,0.163" /><polygon points="0.26061,0.14922 0.25448,0.12504 0.14115,0.163 0.14701,0.18695" /><polygon points="0.25448,0.12504 0.28237,0.13438 0.28845,0.15815 0.26061,0.14922" /><polygon points="0.14115,0.163 0.14701,0.18695 0.17649,0.19511 0.17068,0.17157" /><polygon points="0.28388,0.15668 0.30536,0.24077 0.19217,0.27706 0.17165,0.19377" /><polygon points="0.28388,0.15668 0.28845,0.15815 0.30989,0.242 0.30536,0.24077" /><polygon points="0.17649,0.19511 0.17165,0.19377 0.19217,0.27706 0.19698,0.27817" /><polygon points="0.28237,0.13438 0.30989,0.242 0.19698,0.27817 0.17068,0.17157" /><polygon points="0.26532,0.15073 0.28388,0.15668 0.27253,0.16043 0.25386,0.15453" /><polygon points="0.1632,0.18461 0.18275,0.1901 0.17165,0.19377 0.15199,0.18833" /><polygon points="0.26061,0.14922 0.26532,0.15073 0.15199,0.18833 0.14701,0.18695" /><polygon points="0.17982,0.17827 0.18275,0.1901 0.27253,0.16043 0.2695,0.14852" /><polygon points="0.30155,0.25771 0.30568,0.25539 0.30113,0.25421 0.29699,0.25653" /><polygon points="0.30568,0.25539 0.30872,0.2516 0.30418,0.2504 0.30113,0.25421" /><polygon points="0.30872,0.2516 0.3102,0.24689 0.30567,0.24568 0.30418,0.2504" /><polygon points="0.3102,0.24689 0.30989,0.242 0.30536,0.24077 0.30567,0.24568" /><polygon points="0.29848,0.24565 0.30989,0.242 0.3102,0.24689" /><polygon points="0.29848,0.24565 0.3102,0.24689 0.30872,0.2516" /><polygon points="0.29848,0.24565 0.30872,0.2516 0.30568,0.25539" /><polygon points="0.29848,0.24565 0.30568,0.25539 0.30155,0.25771" /><polygon points="0.20815,0.27459 0.21111,0.28655 0.2066,0.28701" /><polygon points="0.20815,0.27459 0.2066,0.28701 0.20233,0.28557" /><polygon points="0.20815,0.27459 0.20233,0.28557 0.19895,0.28247" /><polygon points="0.20815,0.27459 0.19895,0.28247 0.19698,0.27817" /><polygon points="0.29848,0.24565 0.20815,0.27459 0.21111,0.28655 0.30155,0.25771" /><polygon points="0.29391,0.24444 0.29699,0.25653 0.30113,0.25421" /><polygon points="0.29391,0.24444 0.30113,0.25421 0.30418,0.2504" /><polygon points="0.29391,0.24444 0.30418,0.2504 0.30567,0.24568" /><polygon points="0.29391,0.24444 0.30567,0.24568 0.30536,0.24077" /><polygon points="0.20336,0.27348 0.19217,0.27706 0.19415,0.28138" /><polygon points="0.20336,0.27348 0.19415,0.28138 0.19753,0.28449" /><polygon points="0.20336,0.27348 0.19753,0.28449 0.20181,0.28593" /><polygon points="0.20336,0.27348 0.20181,0.28593 0.20633,0.28547" /><polygon points="0.20633,0.28547 0.20181,0.28593 0.2066,0.28701 0.21111,0.28655" /><polygon points="0.20181,0.28593 0.19753,0.28449 0.20233,0.28557 0.2066,0.28701" /><polygon points="0.19753,0.28449 0.19415,0.28138 0.19895,0.28247 0.20233,0.28557" /><polygon points="0.19415,0.28138 0.19217,0.27706 0.19698,0.27817 0.19895,0.28247" /><polygon points="0.20336,0.27348 0.29391,0.24444 0.29699,0.25653 0.20633,0.28547" /><polygon points="0.29699,0.25653 0.30155,0.25771 0.21111,0.28655 0.20633,0.28547" /><polygon points="0.24524,0.16647 0.25656,0.16272 0.25354,0.15078 0.24223,0.15454" /><polygon points="0.25819,0.15227 0.26121,0.16417 0.24992,0.1679 0.24692,0.15601" /><polygon points="0.24692,0.15601 0.24992,0.1679 0.24524,0.16647 0.24223,0.15454" /><polygon points="0.25819,0.15227 0.24692,0.15601 0.24223,0.15454 0.25354,0.15078" /><polygon points="0.26121,0.16417 0.25819,0.15227 0.25354,0.15078 0.25656,0.16272" /><polygon points="0.24992,0.1679 0.26121,0.16417 0.25656,0.16272 0.24524,0.16647" /><polygon points="0.18906,0.18505 0.20024,0.18135 0.19729,0.16947 0.18612,0.17318" /><polygon points="0.20208,0.17089 0.20503,0.18274 0.19388,0.18642 0.19094,0.17459" /><polygon points="0.19094,0.17459 0.19388,0.18642 0.18906,0.18505 0.18612,0.17318" /><polygon points="0.20208,0.17089 0.19094,0.17459 0.18612,0.17318 0.19729,0.16947" /><polygon points="0.20503,0.18274 0.20208,0.17089 0.19729,0.16947 0.20024,0.18135" /><polygon points="0.19388,0.18642 0.20503,0.18274 0.20024,0.18135 0.18906,0.18505" /><polygon points="0.20864,0.20371 0.20416,0.2042 0.20891,0.20552 0.21339,0.20502" /><polygon points="0.20416,0.2042 0.19991,0.20282 0.20467,0.20414 0.20891,0.20552" /><polygon points="0.19991,0.20282 0.19654,0.19978 0.20131,0.2011 0.20467,0.20414" /><polygon points="0.19654,0.19978 0.19458,0.19553 0.19935,0.19686 0.20131,0.2011" /><polygon points="0.19458,0.19553 0.1943,0.19073 0.19907,0.19208 0.19935,0.19686" /><polygon points="0.1943,0.19073 0.19576,0.1861 0.20052,0.18746 0.19907,0.19208" /><polygon points="0.19576,0.1861 0.19872,0.18235 0.20348,0.18372 0.20052,0.18746" /><polygon points="0.19872,0.18235 0.20276,0.18005 0.20751,0.18143 0.20348,0.18372" /><polygon points="0.20276,0.18005 0.20724,0.17954 0.21198,0.18092 0.20751,0.18143" /><polygon points="0.20724,0.17954 0.21149,0.1809 0.21622,0.18228 0.21198,0.18092" /><polygon points="0.21149,0.1809 0.21487,0.18394 0.21959,0.18531 0.21622,0.18228" /><polygon points="0.21487,0.18394 0.21685,0.18819 0.22156,0.18955 0.21959,0.18531" /><polygon points="0.21685,0.18819 0.21713,0.19301 0.22185,0.19435 0.22156,0.18955" /><polygon points="0.21713,0.19301 0.21567,0.19765 0.22039,0.19898 0.22185,0.19435" /><polygon points="0.21567,0.19765 0.21269,0.2014 0.21742,0.20273 0.22039,0.19898" /><polygon points="0.21269,0.2014 0.20864,0.20371 0.21339,0.20502 0.21742,0.20273" /><polygon points="0.21012,0.20964 0.20339,0.21038 0.20814,0.21167 0.21486,0.21093" /><polygon points="0.20339,0.21038 0.19701,0.2083 0.20178,0.2096 0.20814,0.21167" /><polygon points="0.19701,0.2083 0.19197,0.20373 0.19675,0.20504 0.20178,0.2096" /><polygon points="0.19197,0.20373 0.18903,0.19736 0.19381,0.19869 0.19675,0.20504" /><polygon points="0.18903,0.19736 0.18861,0.19016 0.1934,0.19151 0.19381,0.19869" /><polygon points="0.18861,0.19016 0.1908,0.18323 0.19558,0.1846 0.1934,0.19151" /><polygon points="0.1908,0.18323 0.19524,0.1776 0.20001,0.17899 0.19558,0.1846" /><polygon points="0.19524,0.1776 0.20129,0.17414 0.20604,0.17554 0.20001,0.17899" /><polygon points="0.20129,0.17414 0.20801,0.17337 0.21274,0.17477 0.20604,0.17554" /><polygon points="0.20801,0.17337 0.21439,0.17542 0.21911,0.17682 0.21274,0.17477" /><polygon points="0.21439,0.17542 0.21945,0.17998 0.22417,0.18136 0.21911,0.17682" /><polygon points="0.21945,0.17998 0.22243,0.18635 0.22714,0.18772 0.22417,0.18136" /><polygon points="0.22243,0.18635 0.22286,0.19358 0.22756,0.19492 0.22714,0.18772" /><polygon points="0.22286,0.19358 0.22066,0.20054 0.22538,0.20187 0.22756,0.19492" /><polygon points="0.22066,0.20054 0.21619,0.20618 0.22091,0.20749 0.22538,0.20187" /><polygon points="0.21619,0.20618 0.21012,0.20964 0.21486,0.21093 0.22091,0.20749" /><polygon points="0.1934,0.19151 0.19907,0.19208 0.19935,0.19686 0.19381,0.19869" /><polygon points="0.19558,0.1846 0.20052,0.18746 0.19907,0.19208 0.1934,0.19151" /><polygon points="0.20001,0.17899 0.20348,0.18372 0.20052,0.18746 0.19558,0.1846" /><polygon points="0.20604,0.17554 0.20751,0.18143 0.20348,0.18372 0.20001,0.17899" /><polygon points="0.21274,0.17477 0.21198,0.18092 0.20751,0.18143 0.20604,0.17554" /><polygon points="0.21911,0.17682 0.21622,0.18228 0.21198,0.18092 0.21274,0.17477" /><polygon points="0.22417,0.18136 0.21959,0.18531 0.21622,0.18228 0.21911,0.17682" /><polygon points="0.22714,0.18772 0.22156,0.18955 0.21959,0.18531 0.22417,0.18136" /><polygon points="0.22756,0.19492 0.22185,0.19435 0.22156,0.18955 0.22714,0.18772" /><polygon points="0.22538,0.20187 0.22039,0.19898 0.22185,0.19435 0.22756,0.19492" /><polygon points="0.22091,0.20749 0.21742,0.20273 0.22039,0.19898 0.22538,0.20187" /><polygon points="0.21486,0.21093 0.21339,0.20502 0.21742,0.20273 0.22091,0.20749" /><polygon points="0.20814,0.21167 0.20891,0.20552 0.21339,0.20502 0.21486,0.21093" /><polygon points="0.20178,0.2096 0.20467,0.20414 0.20891,0.20552 0.20814,0.21167" /><polygon points="0.19675,0.20504 0.20131,0.2011 0.20467,0.20414 0.20178,0.2096" /><polygon points="0.19381,0.19869 0.19935,0.19686 0.20131,0.2011 0.19675,0.20504" /><polygon points="0.26473,0.18531 0.26018,0.18582 0.2648,0.18719 0.26933,0.18669" /><polygon points="0.26018,0.18582 0.25587,0.18444 0.2605,0.18582 0.2648,0.18719" /><polygon points="0.25587,0.18444 0.25246,0.18139 0.25709,0.18277 0.2605,0.18582" /><polygon points="0.25246,0.18139 0.25045,0.17712 0.25509,0.17852 0.25709,0.18277" /><polygon points="0.25045,0.17712 0.25016,0.1723 0.2548,0.17371 0.25509,0.17852" /><polygon points="0.25016,0.1723 0.25163,0.16764 0.25626,0.16907 0.2548,0.17371" /><polygon points="0.25163,0.16764 0.25462,0.16386 0.25925,0.1653 0.25626,0.16907" /><polygon points="0.25462,0.16386 0.2587,0.16154 0.26332,0.16298 0.25925,0.1653" /><polygon points="0.2587,0.16154 0.26324,0.16101 0.26784,0.16246 0.26332,0.16298" /><polygon points="0.26324,0.16101 0.26755,0.16238 0.27215,0.16382 0.26784,0.16246" /><polygon points="0.26755,0.16238 0.27098,0.16543 0.27556,0.16686 0.27215,0.16382" /><polygon points="0.27098,0.16543 0.27299,0.1697 0.27758,0.17112 0.27556,0.16686" /><polygon points="0.27299,0.1697 0.27329,0.17453 0.27788,0.17594 0.27758,0.17112" /><polygon points="0.27329,0.17453 0.27182,0.1792 0.27641,0.1806 0.27788,0.17594" /><polygon points="0.27182,0.1792 0.26882,0.18299 0.27341,0.18437 0.27641,0.1806" /><polygon points="0.26882,0.18299 0.26473,0.18531 0.26933,0.18669 0.27341,0.18437" /><polygon points="0.26623,0.19127 0.25941,0.19203 0.26403,0.19338 0.27084,0.19263" /><polygon points="0.25941,0.19203 0.25295,0.18995 0.25759,0.19131 0.26403,0.19338" /><polygon points="0.25295,0.18995 0.24784,0.18537 0.25248,0.18674 0.25759,0.19131" /><polygon points="0.24784,0.18537 0.24483,0.17897 0.24949,0.18036 0.25248,0.18674" /><polygon points="0.24483,0.17897 0.2444,0.17174 0.24905,0.17315 0.24949,0.18036" /><polygon points="0.2444,0.17174 0.24659,0.16476 0.25124,0.16619 0.24905,0.17315" /><polygon points="0.24659,0.16476 0.25109,0.1591 0.25572,0.16055 0.25124,0.16619" /><polygon points="0.25109,0.1591 0.2572,0.15561 0.26182,0.15707 0.25572,0.16055" /><polygon points="0.2572,0.15561 0.264,0.15482 0.26861,0.15628 0.26182,0.15707" /><polygon points="0.264,0.15482 0.27047,0.15686 0.27506,0.15832 0.26861,0.15628" /><polygon points="0.27047,0.15686 0.27562,0.16143 0.28019,0.16288 0.27506,0.15832" /><polygon points="0.27562,0.16143 0.27865,0.16783 0.28322,0.16926 0.28019,0.16288" /><polygon points="0.27865,0.16783 0.2791,0.17509 0.28367,0.1765 0.28322,0.16926" /><polygon points="0.2791,0.17509 0.27689,0.1821 0.28147,0.18349 0.28367,0.1765" /><polygon points="0.27689,0.1821 0.27238,0.18778 0.27696,0.18915 0.28147,0.18349" /><polygon points="0.27238,0.18778 0.26623,0.19127 0.27084,0.19263 0.27696,0.18915" /><polygon points="0.24905,0.17315 0.2548,0.17371 0.25509,0.17852 0.24949,0.18036" /><polygon points="0.25124,0.16619 0.25626,0.16907 0.2548,0.17371 0.24905,0.17315" /><polygon points="0.25572,0.16055 0.25925,0.1653 0.25626,0.16907 0.25124,0.16619" /><polygon points="0.26182,0.15707 0.26332,0.16298 0.25925,0.1653 0.25572,0.16055" /><polygon points="0.26861,0.15628 0.26784,0.16246 0.26332,0.16298 0.26182,0.15707" /><polygon points="0.27506,0.15832 0.27215,0.16382 0.26784,0.16246 0.26861,0.15628" /><polygon points="0.28019,0.16288 0.27556,0.16686 0.27215,0.16382 0.27506,0.15832" /><polygon points="0.28322,0.16926 0.27758,0.17112 0.27556,0.16686 0.28019,0.16288" /><polygon points="0.28367,0.1765 0.27788,0.17594 0.27758,0.17112 0.28322,0.16926" /><polygon points="0.28147,0.18349 0.27641,0.1806 0.27788,0.17594 0.28367,0.1765" /><polygon points="0.27696,0.18915 0.27341,0.18437 0.27641,0.1806 0.28147,0.18349" /><polygon points="0.27084,0.19263 0.26933,0.18669 0.27341,0.18437 0.27696,0.18915" /><polygon points="0.26403,0.19338 0.2648,0.18719 0.26933,0.18669 0.27084,0.19263" /><polygon points="0.25759,0.19131 0.2605,0.18582 0.2648,0.18719 0.26403,0.19338" /><polygon points="0.25248,0.18674 0.25709,0.18277 0.2605,0.18582 0.25759,0.19131" /><polygon points="0.24949,0.18036 0.25509,0.17852 0.25709,0.18277 0.25248,0.18674" /><polygon points="0.27988,0.24511 0.27531,0.24559 0.2799,0.2468 0.28446,0.24632" /><polygon points="0.27531,0.24559 0.27097,0.24417 0.27557,0.24538 0.2799,0.2468" /><polygon points="0.27097,0.24417 0.26753,0.24107 0.27214,0.24229 0.27557,0.24538" /><polygon points="0.26753,0.24107 0.26551,0.23676 0.27013,0.23799 0.27214,0.24229" /><polygon points="0.26551,0.23676 0.26522,0.2319 0.26983,0.23314 0.27013,0.23799" /><polygon points="0.26522,0.2319 0.26669,0.22722 0.2713,0.22848 0.26983,0.23314" /><polygon points="0.26669,0.22722 0.2697,0.22344 0.2743,0.22471 0.2713,0.22848" /><polygon points="0.2697,0.22344 0.2738,0.22113 0.27839,0.2224 0.2743,0.22471" /><polygon points="0.2738,0.22113 0.27837,0.22064 0.28295,0.22191 0.27839,0.2224" /><polygon points="0.27837,0.22064 0.28271,0.22204 0.28728,0.22331 0.28295,0.22191" /><polygon points="0.28271,0.22204 0.28616,0.22514 0.29072,0.2264 0.28728,0.22331" /><polygon points="0.28616,0.22514 0.28819,0.22945 0.29275,0.2307 0.29072,0.2264" /><polygon points="0.28819,0.22945 0.2885,0.23432 0.29306,0.23556 0.29275,0.2307" /><polygon points="0.2885,0.23432 0.28702,0.23901 0.29159,0.24024 0.29306,0.23556" /><polygon points="0.28702,0.23901 0.284,0.2428 0.28857,0.24402 0.29159,0.24024" /><polygon points="0.284,0.2428 0.27988,0.24511 0.28446,0.24632 0.28857,0.24402" /><polygon points="0.2814,0.25112 0.27454,0.25184 0.27914,0.25303 0.28598,0.25231" /><polygon points="0.27454,0.25184 0.26804,0.2497 0.27265,0.25089 0.27914,0.25303" /><polygon points="0.26804,0.2497 0.26289,0.24505 0.26751,0.24625 0.27265,0.25089" /><polygon points="0.26289,0.24505 0.25986,0.23859 0.26449,0.23981 0.26751,0.24625" /><polygon points="0.25986,0.23859 0.25942,0.2313 0.26405,0.23254 0.26449,0.23981" /><polygon points="0.25942,0.2313 0.26162,0.22429 0.26624,0.22555 0.26405,0.23254" /><polygon points="0.26162,0.22429 0.26614,0.21862 0.27075,0.2199 0.26624,0.22555" /><polygon points="0.26614,0.21862 0.27229,0.21515 0.27688,0.21644 0.27075,0.2199" /><polygon points="0.27229,0.21515 0.27914,0.2144 0.28371,0.2157 0.27688,0.21644" /><polygon points="0.27914,0.2144 0.28565,0.21651 0.29021,0.2178 0.28371,0.2157" /><polygon points="0.28565,0.21651 0.29083,0.22114 0.29538,0.22242 0.29021,0.2178" /><polygon points="0.29083,0.22114 0.29388,0.22762 0.29843,0.22887 0.29538,0.22242" /><polygon points="0.29388,0.22762 0.29434,0.23493 0.29888,0.23617 0.29843,0.22887" /><polygon points="0.29434,0.23493 0.29212,0.24197 0.29668,0.24319 0.29888,0.23617" /><polygon points="0.29212,0.24197 0.28758,0.24766 0.29215,0.24886 0.29668,0.24319" /><polygon points="0.28758,0.24766 0.2814,0.25112 0.28598,0.25231 0.29215,0.24886" /><polygon points="0.26405,0.23254 0.26983,0.23314 0.27013,0.23799 0.26449,0.23981" /><polygon points="0.26624,0.22555 0.2713,0.22848 0.26983,0.23314 0.26405,0.23254" /><polygon points="0.27075,0.2199 0.2743,0.22471 0.2713,0.22848 0.26624,0.22555" /><polygon points="0.27688,0.21644 0.27839,0.2224 0.2743,0.22471 0.27075,0.2199" /><polygon points="0.28371,0.2157 0.28295,0.22191 0.27839,0.2224 0.27688,0.21644" /><polygon points="0.29021,0.2178 0.28728,0.22331 0.28295,0.22191 0.28371,0.2157" /><polygon points="0.29538,0.22242 0.29072,0.2264 0.28728,0.22331 0.29021,0.2178" /><polygon points="0.29843,0.22887 0.29275,0.2307 0.29072,0.2264 0.29538,0.22242" /><polygon points="0.29888,0.23617 0.29306,0.23556 0.29275,0.2307 0.29843,0.22887" /><polygon points="0.29668,0.24319 0.29159,0.24024 0.29306,0.23556 0.29888,0.23617" /><polygon points="0.29215,0.24886 0.28857,0.24402 0.29159,0.24024 0.29668,0.24319" /><polygon points="0.28598,0.25231 0.28446,0.24632 0.28857,0.24402 0.29215,0.24886" /><polygon points="0.27914,0.25303 0.2799,0.2468 0.28446,0.24632 0.28598,0.25231" /><polygon points="0.27265,0.25089 0.27557,0.24538 0.2799,0.2468 0.27914,0.25303" /><polygon points="0.26751,0.24625 0.27214,0.24229 0.27557,0.24538 0.27265,0.25089" /><polygon points="0.26449,0.23981 0.27013,0.23799 0.27214,0.24229 0.26751,0.24625" /><polygon points="0.22346,0.26323 0.21894,0.2637 0.22367,0.26484 0.22818,0.26437" /><polygon points="0.21894,0.2637 0.21467,0.26227 0.21941,0.26342 0.22367,0.26484" /><polygon points="0.21467,0.26227 0.21128,0.25918 0.21603,0.26034 0.21941,0.26342" /><polygon points="0.21128,0.25918 0.2093,0.25489 0.21405,0.25606 0.21603,0.26034" /><polygon points="0.2093,0.25489 0.20902,0.25005 0.21377,0.25123 0.21405,0.25606" /><polygon points="0.20902,0.25005 0.21048,0.24541 0.21523,0.2466 0.21377,0.25123" /><polygon points="0.21048,0.24541 0.21346,0.24165 0.2182,0.24286 0.21523,0.2466" /><polygon points="0.21346,0.24165 0.21752,0.23936 0.22225,0.24057 0.2182,0.24286" /><polygon points="0.21752,0.23936 0.22203,0.23888 0.22675,0.24009 0.22225,0.24057" /><polygon points="0.22203,0.23888 0.22631,0.24029 0.23102,0.2415 0.22675,0.24009" /><polygon points="0.22631,0.24029 0.22971,0.24337 0.23441,0.24457 0.23102,0.2415" /><polygon points="0.22971,0.24337 0.2317,0.24767 0.2364,0.24886 0.23441,0.24457" /><polygon points="0.2317,0.24767 0.23199,0.25251 0.23669,0.25369 0.2364,0.24886" /><polygon points="0.23199,0.25251 0.23052,0.25718 0.23522,0.25834 0.23669,0.25369" /><polygon points="0.23052,0.25718 0.22753,0.26094 0.23224,0.26209 0.23522,0.25834" /><polygon points="0.22753,0.26094 0.22346,0.26323 0.22818,0.26437 0.23224,0.26209" /><polygon points="0.22495,0.26921 0.21817,0.26991 0.2229,0.27103 0.22967,0.27034" /><polygon points="0.21817,0.26991 0.21176,0.26777 0.21651,0.2689 0.2229,0.27103" /><polygon points="0.21176,0.26777 0.20668,0.26313 0.21144,0.26427 0.21651,0.2689" /><polygon points="0.20668,0.26313 0.20371,0.25669 0.20848,0.25785 0.21144,0.26427" /><polygon points="0.20371,0.25669 0.20329,0.24944 0.20806,0.25062 0.20848,0.25785" /><polygon points="0.20329,0.24944 0.20549,0.24247 0.21024,0.24368 0.20806,0.25062" /><polygon points="0.20549,0.24247 0.20996,0.23684 0.2147,0.23806 0.21024,0.24368" /><polygon points="0.20996,0.23684 0.21604,0.2334 0.22077,0.23463 0.2147,0.23806" /><polygon points="0.21604,0.2334 0.2228,0.23268 0.22751,0.23391 0.22077,0.23463" /><polygon points="0.2228,0.23268 0.22922,0.23479 0.23392,0.23601 0.22751,0.23391" /><polygon points="0.22922,0.23479 0.23432,0.23941 0.23901,0.24063 0.23392,0.23601" /><polygon points="0.23432,0.23941 0.23732,0.24585 0.242,0.24705 0.23901,0.24063" /><polygon points="0.23732,0.24585 0.23775,0.25313 0.24244,0.25431 0.242,0.24705" /><polygon points="0.23775,0.25313 0.23555,0.26013 0.24024,0.26129 0.24244,0.25431" /><polygon points="0.23555,0.26013 0.23105,0.26578 0.23576,0.26692 0.24024,0.26129" /><polygon points="0.23105,0.26578 0.22495,0.26921 0.22967,0.27034 0.23576,0.26692" /><polygon points="0.20806,0.25062 0.21377,0.25123 0.21405,0.25606 0.20848,0.25785" /><polygon points="0.21024,0.24368 0.21523,0.2466 0.21377,0.25123 0.20806,0.25062" /><polygon points="0.2147,0.23806 0.2182,0.24286 0.21523,0.2466 0.21024,0.24368" /><polygon points="0.22077,0.23463 0.22225,0.24057 0.2182,0.24286 0.2147,0.23806" /><polygon points="0.22751,0.23391 0.22675,0.24009 0.22225,0.24057 0.22077,0.23463" /><polygon points="0.23392,0.23601 0.23102,0.2415 0.22675,0.24009 0.22751,0.23391" /><polygon points="0.23901,0.24063 0.23441,0.24457 0.23102,0.2415 0.23392,0.23601" /><polygon points="0.242,0.24705 0.2364,0.24886 0.23441,0.24457 0.23901,0.24063" /><polygon points="0.24244,0.25431 0.23669,0.25369 0.2364,0.24886 0.242,0.24705" /><polygon points="0.24024,0.26129 0.23522,0.25834 0.23669,0.25369 0.24244,0.25431" /><polygon points="0.23576,0.26692 0.23224,0.26209 0.23522,0.25834 0.24024,0.26129" /><polygon points="0.22967,0.27034 0.22818,0.26437 0.23224,0.26209 0.23576,0.26692" /><polygon points="0.2229,0.27103 0.22367,0.26484 0.22818,0.26437 0.22967,0.27034" /><polygon points="0.21651,0.2689 0.21941,0.26342 0.22367,0.26484 0.2229,0.27103" /><polygon points="0.21144,0.26427 0.21603,0.26034 0.21941,0.26342 0.21651,0.2689" /><polygon points="0.20848,0.25785 0.21405,0.25606 0.21603,0.26034 0.21144,0.26427" /><polygon points="0.21553,0.1718 0.22683,0.16805 0.22415,0.16778" /><polygon points="0.21553,0.1718 0.22415,0.16778 0.22014,0.16813" /><polygon points="0.21553,0.1718 0.22014,0.16813 0.21542,0.16904" /><polygon points="0.21553,0.1718 0.21542,0.16904 0.21072,0.17036" /><polygon points="0.21553,0.1718 0.21072,0.17036 0.20676,0.17191" /><polygon points="0.21553,0.1718 0.20676,0.17191 0.20414,0.17343" /><polygon points="0.21553,0.1718 0.20414,0.17343 0.20326,0.1747" /><polygon points="0.21553,0.1718 0.20326,0.1747 0.20425,0.17553" /><polygon points="0.21553,0.1718 0.20425,0.17553 0.20695,0.17579" /><polygon points="0.21553,0.1718 0.20695,0.17579 0.21095,0.17544" /><polygon points="0.21553,0.1718 0.21095,0.17544 0.21563,0.17454" /><polygon points="0.21553,0.1718 0.21563,0.17454 0.22031,0.17322" /><polygon points="0.21553,0.1718 0.22031,0.17322 0.22426,0.17168" /><polygon points="0.21553,0.1718 0.22426,0.17168 0.22689,0.17016" /><polygon points="0.21553,0.1718 0.22689,0.17016 0.22779,0.16889" /><polygon points="0.21553,0.1718 0.22779,0.16889 0.22683,0.16805" /><polygon points="0.22383,0.15608 0.22114,0.15581 0.22415,0.16778 0.22683,0.16805" /><polygon points="0.22114,0.15581 0.21714,0.15614 0.22014,0.16813 0.22415,0.16778" /><polygon points="0.21714,0.15614 0.21242,0.15704 0.21542,0.16904 0.22014,0.16813" /><polygon points="0.21242,0.15704 0.20773,0.15837 0.21072,0.17036 0.21542,0.16904" /><polygon points="0.20773,0.15837 0.20377,0.15993 0.20676,0.17191 0.21072,0.17036" /><polygon points="0.20377,0.15993 0.20116,0.16146 0.20414,0.17343 0.20676,0.17191" /><polygon points="0.20116,0.16146 0.20029,0.16275 0.20326,0.1747 0.20414,0.17343" /><polygon points="0.20029,0.16275 0.20128,0.16359 0.20425,0.17553 0.20326,0.1747" /><polygon points="0.20128,0.16359 0.20398,0.16386 0.20695,0.17579 0.20425,0.17553" /><polygon points="0.20398,0.16386 0.20797,0.16352 0.21095,0.17544 0.20695,0.17579" /><polygon points="0.20797,0.16352 0.21266,0.16262 0.21563,0.17454 0.21095,0.17544" /><polygon points="0.21266,0.16262 0.21732,0.1613 0.22031,0.17322 0.21563,0.17454" /><polygon points="0.21732,0.1613 0.22127,0.15975 0.22426,0.17168 0.22031,0.17322" /><polygon points="0.22127,0.15975 0.22389,0.15822 0.22689,0.17016 0.22426,0.17168" /><polygon points="0.22389,0.15822 0.22479,0.15693 0.22779,0.16889 0.22689,0.17016" /><polygon points="0.22479,0.15693 0.22383,0.15608 0.22683,0.16805 0.22779,0.16889" /><polygon points="0.16026,0.17265 0.25081,0.14248 0.2695,0.14852 0.17982,0.17827" /><polygon points="0.16026,0.17265 0.1632,0.18461 0.25386,0.15453 0.25081,0.14248" /><polygon points="0.17982,0.17827 0.18275,0.1901 0.1632,0.18461 0.16026,0.17265" /><polygon points="0.25081,0.14248 0.25386,0.15453 0.27253,0.16043 0.2695,0.14852" /></g></svg>